<?xml version="1.0" encoding="UTF-8"?>
<!DOCTYPE svg PUBLIC "-//W3C//DTD SVG 1.1//EN" "http://www.w3.org/Graphics/SVG/1.1/DTD/svg11.dtd">
<svg xmlns="http://www.w3.org/2000/svg"
  xmlns:xlink="http://www.w3.org/1999/xlink" version="1.1" width="124px" height="198px" viewBox="-0.5 -0.5 124 198">
  <defs/>
  <g>
    <path d="M 32 27 Q 92 27 92 70 Q 92 113 32 113 Q 62 70 32 27 Z" fill="#c17ecd" stroke="none" transform="rotate(90,62,70)" pointer-events="none"/>
    <path d="M 21 13 Q 104 13 104 60 Q 104 107 21 107 Z" fill="none" stroke="#ffffff" stroke-width="6" stroke-miterlimit="10" transform="rotate(90,62.5,60)" pointer-events="none"/>
    <path d="M 37 99 L 91 150 L 37 201 Z" fill="#c17ecd" stroke="none" transform="rotate(-90,64,150)" pointer-events="none"/>
    <rect x="3" y="3" width="118" height="20" rx="4" ry="4" fill="#ffffff" stroke="none" pointer-events="none"/>
    <rect x="3" y="175" width="118" height="20" rx="4" ry="4" fill="#f5f5f5" stroke="none" pointer-events="none"/>
    <path d="M 22 96 Q 105 96 105 143 Q 105 190 22 190 Z" fill="none" stroke="#ffffff" stroke-width="6" stroke-miterlimit="10" transform="rotate(-90,63.5,143)" pointer-events="none"/>
  </g>
</svg>